<?xml version="1.0" encoding="UTF-8" standalone="no"?>
<svg width="350" height="200" viewBox="0 0 350 200" xmlns="http://www.w3.org/2000/svg">
  <style>
    .grid-line { stroke: #ddd; stroke-width: 1; }
    .bar-1 { fill: #4285F4; }
    .bar-2 { fill: #34A853; }
    .bar-3 { fill: #FBBC05; }
    .bar-4 { fill: #EA4335; }
    .bar-5 { fill: #673AB7; }
    .label { font-family: Arial; font-size: 10px; fill: #666; }
  </style>
  
  <!-- Background -->
  <rect x="0" y="0" width="350" height="200" fill="#f5f5f5" />
  
  <!-- Grid lines -->
  <line x1="40" y1="30" x2="40" y2="150" class="grid-line" />
  <line x1="40" y1="150" x2="310" y2="150" class="grid-line" />
  <line x1="40" y1="30" x2="310" y2="30" class="grid-line" />
  <line x1="40" y1="60" x2="310" y2="60" class="grid-line" />
  <line x1="40" y1="90" x2="310" y2="90" class="grid-line" />
  <line x1="40" y1="120" x2="310" y2="120" class="grid-line" />
  
  <!-- Bars -->
  <rect x="60" y="60" width="30" height="90" class="bar-1" />
  <rect x="100" y="40" width="30" height="110" class="bar-2" />
  <rect x="140" y="70" width="30" height="80" class="bar-3" />
  <rect x="180" y="50" width="30" height="100" class="bar-4" />
  <rect x="220" y="80" width="30" height="70" class="bar-5" />
  
  <!-- X-axis labels -->
  <text x="75" y="170" text-anchor="middle" class="label">Model 1</text>
  <text x="115" y="170" text-anchor="middle" class="label">Model 2</text>
  <text x="155" y="170" text-anchor="middle" class="label">Model 3</text>
  <text x="195" y="170" text-anchor="middle" class="label">Model 4</text>
  <text x="235" y="170" text-anchor="middle" class="label">Model 5</text>
  
  <!-- Y-axis labels -->
  <text x="35" y="150" text-anchor="end" class="label">0</text>
  <text x="35" y="120" text-anchor="end" class="label">25</text>
  <text x="35" y="90" text-anchor="end" class="label">50</text>
  <text x="35" y="60" text-anchor="end" class="label">75</text>
  <text x="35" y="30" text-anchor="end" class="label">100</text>
</svg>
